<svg xmlns="http://www.w3.org/2000/svg" xmlns:xlink="http://www.w3.org/1999/xlink" width="500" zoomAndPan="magnify" viewBox="0 0 375 374.999991" height="500" preserveAspectRatio="xMidYMid meet" version="1.0"><defs><g/><clipPath id="758944446a"><path d="M 143.1875 65.40625 L 231.6875 65.40625 L 231.6875 181 L 143.1875 181 Z M 143.1875 65.40625 " clip-rule="nonzero"/></clipPath><clipPath id="8bd6dd4ffb"><path d="M 143.1875 105 L 231.6875 105 L 231.6875 220.65625 L 143.1875 220.65625 Z M 143.1875 105 " clip-rule="nonzero"/></clipPath></defs><g clip-path="url(#758944446a)"><path fill="#474747" d="M 209.203125 78.273438 C 210.03125 78.273438 210.761719 77.957031 211.300781 77.414062 C 211.84375 76.875 212.160156 76.144531 212.160156 75.316406 C 212.160156 74.492188 211.84375 73.761719 211.300781 73.21875 C 210.761719 72.679688 210.03125 72.363281 209.203125 72.363281 C 208.378906 72.363281 207.648438 72.679688 207.105469 73.21875 C 206.566406 73.761719 206.25 74.492188 206.25 75.316406 C 206.25 76.144531 206.566406 76.875 207.105469 77.414062 C 207.648438 77.957031 208.378906 78.273438 209.203125 78.273438 Z M 158.824219 171.5625 L 178.148438 171.5625 L 172.9375 180.621094 L 143.1875 180.621094 L 147.097656 173.820312 L 175.226562 125.09375 L 176.179688 123.441406 L 181.203125 114.761719 L 186.414062 105.703125 L 195.378906 90.195312 L 200.941406 80.53125 C 199.988281 79.003906 199.414062 77.226562 199.414062 75.285156 C 199.414062 72.585938 200.496094 70.167969 202.273438 68.390625 C 204.054688 66.609375 206.472656 65.527344 209.171875 65.527344 C 211.875 65.527344 214.289062 66.609375 216.070312 68.390625 C 217.851562 70.167969 218.929688 72.585938 218.929688 75.285156 C 218.929688 77.988281 217.851562 80.402344 216.070312 82.183594 C 214.289062 83.964844 211.875 85.042969 209.171875 85.042969 C 209.046875 85.042969 208.886719 85.042969 208.757812 85.042969 L 196.839844 105.703125 L 191.628906 114.761719 L 184 127.953125 L 184 127.984375 Z M 231.804688 171.5625 L 198.96875 171.5625 L 193.757812 180.621094 L 231.804688 180.621094 Z M 231.804688 171.5625 " fill-opacity="1" fill-rule="evenodd"/></g><g clip-path="url(#8bd6dd4ffb)"><path fill="#100840" d="M 165.816406 208.054688 C 164.992188 208.054688 164.261719 208.371094 163.71875 208.910156 C 163.179688 209.453125 162.863281 210.183594 162.863281 211.007812 C 162.863281 211.835938 163.179688 212.566406 163.71875 213.105469 C 164.261719 213.648438 164.992188 213.964844 165.816406 213.964844 C 166.644531 213.964844 167.375 213.648438 167.914062 213.105469 C 168.457031 212.566406 168.773438 211.835938 168.773438 211.007812 C 168.773438 210.183594 168.457031 209.453125 167.914062 208.910156 C 167.375 208.371094 166.613281 208.054688 165.816406 208.054688 Z M 202.050781 105.703125 L 231.804688 105.703125 L 227.894531 112.507812 L 198.808594 162.886719 L 193.789062 171.5625 L 188.542969 180.621094 L 174.019531 205.765625 C 174.972656 207.289062 175.542969 209.070312 175.542969 211.007812 C 175.542969 213.710938 174.464844 216.125 172.683594 217.90625 C 170.902344 219.6875 168.488281 220.765625 165.785156 220.765625 C 163.082031 220.765625 160.667969 219.6875 158.886719 217.90625 C 157.109375 216.125 156.027344 213.710938 156.027344 211.007812 C 156.027344 208.308594 157.109375 205.890625 158.886719 204.113281 C 160.667969 202.332031 163.082031 201.25 165.785156 201.25 C 165.914062 201.25 166.070312 201.25 166.199219 201.25 L 178.117188 180.589844 L 183.332031 171.53125 L 187.6875 164 L 189.371094 161.042969 L 190.929688 158.339844 L 190.929688 158.371094 L 216.101562 114.761719 L 196.777344 114.761719 Z M 165.816406 114.761719 L 176.019531 114.761719 L 181.234375 105.703125 L 143.1875 105.703125 L 143.1875 114.761719 Z M 165.816406 114.761719 " fill-opacity="1" fill-rule="evenodd"/></g><g fill="#000000" fill-opacity="1"><g transform="translate(106.476564, 273.294445)"><g><path d="M 10.984375 -6.296875 L 24.5625 -6.296875 L 24.5625 0 L 2.25 0 L 2.25 -5.84375 L 15.75 -25.296875 L 2.25 -25.296875 L 2.25 -31.59375 L 24.5625 -31.59375 L 24.5625 -25.734375 Z M 10.984375 -6.296875 "/></g></g></g><g fill="#000000" fill-opacity="1"><g transform="translate(135.546535, 273.294445)"><g><path d="M 2.203125 -5.84375 L 2.203125 -12.0625 L 16.421875 -32.40625 L 25.015625 -32.40625 L 25.015625 -12.515625 L 28.703125 -12.515625 L 28.703125 -5.84375 L 25.015625 -5.84375 L 25.015625 0 L 17.328125 0 L 17.328125 -5.84375 Z M 17.859375 -23.9375 L 10.3125 -12.515625 L 17.859375 -12.515625 Z M 17.859375 -23.9375 "/></g></g></g><g fill="#000000" fill-opacity="1"><g transform="translate(168.261506, 273.294445)"><g><path d="M 29.875 -31.59375 L 18.9375 -10.4375 L 18.9375 0 L 11.25 0 L 11.25 -10.4375 L 0.3125 -31.59375 L 9.046875 -31.59375 L 15.171875 -18.359375 L 21.234375 -31.59375 Z M 29.875 -31.59375 "/></g></g></g><g fill="#000000" fill-opacity="1"><g transform="translate(200.706477, 273.294445)"><g><path d="M 31.046875 0 L 23.359375 0 L 10.484375 -19.484375 L 10.484375 0 L 2.796875 0 L 2.796875 -31.59375 L 10.484375 -31.59375 L 23.359375 -12.015625 L 23.359375 -31.59375 L 31.046875 -31.59375 Z M 31.046875 0 "/></g></g></g><g fill="#000000" fill-opacity="1"><g transform="translate(236.796449, 273.294445)"><g><path d="M 10.34375 -31.59375 L 10.34375 -12.6875 C 10.34375 -10.800781 10.804688 -9.347656 11.734375 -8.328125 C 12.671875 -7.304688 14.039062 -6.796875 15.84375 -6.796875 C 17.644531 -6.796875 19.023438 -7.304688 19.984375 -8.328125 C 20.941406 -9.347656 21.421875 -10.800781 21.421875 -12.6875 L 21.421875 -31.59375 L 29.109375 -31.59375 L 29.109375 -12.734375 C 29.109375 -9.910156 28.507812 -7.523438 27.3125 -5.578125 C 26.113281 -3.628906 24.5 -2.160156 22.46875 -1.171875 C 20.445312 -0.179688 18.191406 0.3125 15.703125 0.3125 C 13.210938 0.3125 10.984375 -0.171875 9.015625 -1.140625 C 7.054688 -2.117188 5.503906 -3.585938 4.359375 -5.546875 C 3.222656 -7.515625 2.65625 -9.910156 2.65625 -12.734375 L 2.65625 -31.59375 Z M 10.34375 -31.59375 "/></g></g></g></svg>