<svg xmlns="http://www.w3.org/2000/svg" xmlns:xlink="http://www.w3.org/1999/xlink" width="500" zoomAndPan="magnify" viewBox="0 0 375 374.999991" height="500" preserveAspectRatio="xMidYMid meet" version="1.0"><defs><clipPath id="7932e4a447"><path d="M 111.292969 54 L 263.542969 54 L 263.542969 252 L 111.292969 252 Z M 111.292969 54 " clip-rule="nonzero"/></clipPath><clipPath id="1a81a982a3"><path d="M 111.292969 123 L 263.542969 123 L 263.542969 321 L 111.292969 321 Z M 111.292969 123 " clip-rule="nonzero"/></clipPath></defs><g clip-path="url(#7932e4a447)"><path fill="#474747" d="M 224.828125 75.929688 C 226.25 75.929688 227.507812 75.382812 228.4375 74.453125 C 229.367188 73.523438 229.914062 72.265625 229.914062 70.84375 C 229.914062 69.425781 229.367188 68.167969 228.4375 67.238281 C 227.507812 66.308594 226.25 65.761719 224.828125 65.761719 C 223.410156 65.761719 222.152344 66.308594 221.222656 67.238281 C 220.292969 68.167969 219.746094 69.425781 219.746094 70.84375 C 219.746094 72.265625 220.292969 73.523438 221.222656 74.453125 C 222.152344 75.382812 223.410156 75.929688 224.828125 75.929688 Z M 138.1875 236.367188 L 171.421875 236.367188 L 162.457031 251.945312 L 111.292969 251.945312 L 118.015625 240.25 L 166.394531 156.449219 L 168.035156 153.605469 L 176.671875 138.683594 L 185.636719 123.105469 L 201.050781 96.429688 L 210.617188 79.808594 C 208.976562 77.1875 207.992188 74.125 207.992188 70.789062 C 207.992188 66.144531 209.851562 61.988281 212.914062 58.929688 C 215.972656 55.867188 220.128906 54.007812 224.773438 54.007812 C 229.421875 54.007812 233.574219 55.867188 236.636719 58.929688 C 239.699219 61.988281 241.558594 66.144531 241.558594 70.789062 C 241.558594 75.4375 239.699219 79.589844 236.636719 82.652344 C 233.574219 85.714844 229.421875 87.574219 224.773438 87.574219 C 224.554688 87.574219 224.285156 87.574219 224.066406 87.574219 L 203.566406 123.105469 L 194.601562 138.683594 L 181.480469 161.367188 L 181.480469 161.421875 Z M 263.695312 236.367188 L 207.226562 236.367188 L 198.261719 251.945312 L 263.695312 251.945312 Z M 263.695312 236.367188 " fill-opacity="1" fill-rule="evenodd"/></g><g clip-path="url(#1a81a982a3)"><path fill="#100840" d="M 150.214844 299.121094 C 148.792969 299.121094 147.535156 299.667969 146.605469 300.597656 C 145.675781 301.527344 145.128906 302.785156 145.128906 304.203125 C 145.128906 305.625 145.675781 306.882812 146.605469 307.8125 C 147.535156 308.742188 148.792969 309.289062 150.214844 309.289062 C 151.636719 309.289062 152.890625 308.742188 153.820312 307.8125 C 154.75 306.882812 155.296875 305.625 155.296875 304.203125 C 155.296875 302.785156 154.75 301.527344 153.820312 300.597656 C 152.890625 299.667969 151.582031 299.121094 150.214844 299.121094 Z M 212.53125 123.105469 L 263.695312 123.105469 L 256.972656 134.800781 L 206.953125 221.445312 L 198.316406 236.367188 L 189.296875 251.945312 L 164.316406 295.183594 C 165.957031 297.808594 166.941406 300.871094 166.941406 304.203125 C 166.941406 308.851562 165.082031 313.003906 162.019531 316.066406 C 158.960938 319.128906 154.804688 320.984375 150.160156 320.984375 C 145.511719 320.984375 141.359375 319.128906 138.296875 316.066406 C 135.234375 313.003906 133.378906 308.851562 133.378906 304.203125 C 133.378906 299.558594 135.234375 295.402344 138.296875 292.34375 C 141.359375 289.28125 145.511719 287.421875 150.160156 287.421875 C 150.378906 287.421875 150.652344 287.421875 150.871094 287.421875 L 171.367188 251.890625 L 180.332031 236.3125 L 187.824219 223.355469 L 190.71875 218.273438 L 193.398438 213.625 L 193.398438 213.679688 L 236.691406 138.683594 L 203.457031 138.683594 Z M 150.214844 138.683594 L 167.761719 138.683594 L 176.726562 123.105469 L 111.292969 123.105469 L 111.292969 138.683594 Z M 150.214844 138.683594 " fill-opacity="1" fill-rule="evenodd"/></g></svg>